<svg width="64" height="64" viewBox="0 0 64 64" fill="none" xmlns="http://www.w3.org/2000/svg">
<path d="M0 0H64V64H0V0Z" fill="#003541"/>
<path d="M26.9648 34.6709L23.8535 29.6084L20.7949 34.5303L18.2637 32.7549L21.8496 27.9561L16.5762 26.3916L17.5254 23.4561L22.7461 25.5303L22.4824 19.4658H25.5938L25.3125 25.6357L30.4453 23.5967L31.3594 26.585L26.0156 28.1494L29.4785 32.8428L26.9648 34.6709ZM42.8428 34.6709L39.7315 29.6084L36.6729 34.5303L34.1416 32.7549L37.7276 27.9561L32.4541 26.3916L33.4034 23.4561L38.6241 25.5303L38.3604 19.4658H41.4717L41.1905 25.6357L46.3233 23.5967L47.2373 26.585L41.8936 28.1494L45.3565 32.8428L42.8428 34.6709ZM58.7208 34.6709L55.6095 29.6084L52.5509 34.5303L50.0196 32.7549L53.6055 27.9561L48.3321 26.3916L49.2813 23.4561L54.502 25.5303L54.2384 19.4658H57.3497L57.0684 25.6357L62.2013 23.5967L63.1153 26.585L57.7716 28.1494L61.2345 32.8428L58.7208 34.6709Z" fill="#F0F5F5"/>
</svg>
