<svg width="264" height="48" viewBox="0 0 264 48" fill="none" xmlns="http://www.w3.org/2000/svg">
<path d="M56.7734 26V24.1953L58.6367 23.8438V11.1055L56.7734 10.7539V8.9375H63.4414V10.7539L61.5898 11.1055V23.8438L63.4414 24.1953V26H56.7734ZM64.5814 26V24.1953L66.3392 23.8438V15.4883L64.4877 15.1367V13.3203H69.058L69.2103 15.1602C69.6322 14.5039 70.1556 13.9961 70.7806 13.6367C71.4134 13.2695 72.1283 13.0859 72.9252 13.0859C74.2298 13.0859 75.2455 13.4883 75.972 14.293C76.6986 15.0898 77.0619 16.3398 77.0619 18.043V23.8438L78.8197 24.1953V26H72.4564V24.1953L74.1087 23.8438V18.0664C74.1087 17.1055 73.9173 16.4258 73.5345 16.0273C73.1517 15.6211 72.5814 15.418 71.8236 15.418C71.2533 15.418 70.7533 15.5469 70.3236 15.8047C69.9017 16.0547 69.558 16.4062 69.2923 16.8594V23.8438L70.8978 24.1953V26H64.5814ZM85.4005 26V24.1953L87.2638 23.8203V11.1172L85.4005 10.7539V8.94922H93.0294C94.9278 8.94922 96.3966 9.375 97.4356 10.2266C98.4825 11.0781 99.0059 12.2773 99.0059 13.8242C99.0059 14.6523 98.7833 15.3789 98.338 16.0039C97.8927 16.6289 97.2403 17.1367 96.3809 17.5273C97.3184 17.832 97.9942 18.332 98.4083 19.0273C98.8223 19.7148 99.0294 20.5625 99.0294 21.5703V22.6836C99.0294 23.1289 99.0958 23.4648 99.2286 23.6914C99.3614 23.9102 99.5802 24.0469 99.8848 24.1016L100.377 24.1719V26H98.8536C97.8458 26 97.1309 25.6875 96.7091 25.0625C96.2872 24.4375 96.0763 23.6602 96.0763 22.7305V21.5938C96.0763 20.7266 95.838 20.0352 95.3614 19.5195C94.8927 19.0039 94.252 18.7422 93.4395 18.7344H90.2169V23.8203L92.0919 24.1953V26H85.4005ZM90.2169 16.4492H92.8653C93.9669 16.4492 94.7755 16.2344 95.2911 15.8047C95.8067 15.3672 96.0645 14.7227 96.0645 13.8711C96.0645 13.0664 95.8145 12.4258 95.3145 11.9492C94.8145 11.4648 94.0528 11.2227 93.0294 11.2227H90.2169V16.4492ZM107.4 26.2461C106.205 26.2461 105.162 25.9805 104.271 25.4492C103.388 24.9102 102.701 24.168 102.208 23.2227C101.724 22.2773 101.482 21.1953 101.482 19.9766V19.4844C101.482 18.25 101.72 17.1523 102.197 16.1914C102.681 15.2227 103.345 14.4648 104.189 13.918C105.033 13.3633 105.994 13.0859 107.072 13.0859C108.22 13.0859 109.181 13.3164 109.955 13.7773C110.736 14.2383 111.326 14.8945 111.724 15.7461C112.123 16.5898 112.322 17.6055 112.322 18.793V20.4805H104.54L104.517 20.5391C104.548 21.2031 104.685 21.793 104.927 22.3086C105.177 22.8242 105.529 23.2305 105.982 23.5273C106.443 23.8242 107.001 23.9727 107.658 23.9727C108.345 23.9727 108.97 23.8789 109.533 23.6914C110.095 23.5039 110.615 23.2383 111.091 22.8945L112.017 24.7461C111.517 25.168 110.88 25.5234 110.107 25.8125C109.333 26.1016 108.431 26.2461 107.4 26.2461ZM104.587 18.4062H109.498V18.1016C109.498 17.5469 109.412 17.0625 109.24 16.6484C109.076 16.2266 108.814 15.8984 108.455 15.6641C108.103 15.4297 107.654 15.3125 107.107 15.3125C106.63 15.3125 106.212 15.4453 105.853 15.7109C105.494 15.9766 105.205 16.3398 104.986 16.8008C104.775 17.2539 104.63 17.7695 104.552 18.3477L104.587 18.4062ZM118.407 26.2227C117.329 26.2227 116.489 25.9219 115.888 25.3203C115.286 24.7109 114.985 23.7422 114.985 22.4141V15.4297H113.134V13.3203H114.985V10.2383H117.927V13.3203H120.434V15.4297H117.927V22.4141C117.927 22.9531 118.036 23.3477 118.255 23.5977C118.481 23.8398 118.786 23.9609 119.169 23.9609C119.388 23.9609 119.63 23.9414 119.895 23.9023C120.169 23.8633 120.388 23.8242 120.552 23.7852L120.856 25.8594C120.513 25.9609 120.118 26.0469 119.673 26.1172C119.235 26.1875 118.813 26.2227 118.407 26.2227ZM122.008 26V24.1953L123.766 23.8438V15.4883L121.914 15.1367V13.3203H126.485L126.637 14.9141L126.66 15.1719C126.996 14.5 127.406 13.9844 127.891 13.625C128.383 13.2656 128.957 13.0859 129.613 13.0859C129.832 13.0859 130.063 13.1055 130.305 13.1445C130.555 13.1836 130.758 13.2266 130.914 13.2734L130.574 16.0039L128.922 15.9102C128.383 15.8789 127.938 15.9844 127.586 16.2266C127.242 16.4688 126.953 16.8047 126.719 17.2344V23.8438L128.477 24.1953V26H122.008ZM137.433 26.2461C136.214 26.2461 135.168 25.9727 134.293 25.4258C133.418 24.8789 132.746 24.1211 132.277 23.1523C131.808 22.1758 131.574 21.0547 131.574 19.7891V19.543C131.574 18.2852 131.808 17.1719 132.277 16.2031C132.746 15.2344 133.418 14.4727 134.293 13.918C135.168 13.3633 136.207 13.0859 137.41 13.0859C138.628 13.0859 139.675 13.3633 140.55 13.918C141.425 14.4648 142.097 15.2227 142.566 16.1914C143.035 17.1602 143.269 18.2773 143.269 19.543V19.7891C143.269 21.0547 143.035 22.1758 142.566 23.1523C142.097 24.1211 141.425 24.8789 140.55 25.4258C139.683 25.9727 138.644 26.2461 137.433 26.2461ZM137.433 23.9727C138.089 23.9727 138.628 23.7969 139.05 23.4453C139.48 23.0859 139.8 22.5938 140.011 21.9688C140.222 21.3359 140.328 20.6094 140.328 19.7891V19.543C140.328 18.7305 140.222 18.0117 140.011 17.3867C139.8 16.7617 139.48 16.2695 139.05 15.9102C138.621 15.5508 138.074 15.3711 137.41 15.3711C136.761 15.3711 136.222 15.5508 135.793 15.9102C135.363 16.2695 135.043 16.7617 134.832 17.3867C134.628 18.0117 134.527 18.7305 134.527 19.543V19.7891C134.527 20.6094 134.628 21.3359 134.832 21.9688C135.043 22.5938 135.363 23.0859 135.793 23.4453C136.23 23.7969 136.777 23.9727 137.433 23.9727ZM144.468 26V24.1953L146.237 23.8438V15.4883L144.374 15.1367V13.3203H148.944L149.085 14.9844C149.499 14.3828 150.015 13.918 150.632 13.5898C151.257 13.2539 151.979 13.0859 152.8 13.0859C153.628 13.0859 154.335 13.2734 154.921 13.6484C155.515 14.0156 155.964 14.5742 156.268 15.3242C156.659 14.6289 157.171 14.082 157.804 13.6836C158.444 13.2852 159.194 13.0859 160.054 13.0859C161.327 13.0859 162.327 13.5195 163.054 14.3867C163.788 15.2539 164.155 16.5664 164.155 18.3242V23.8438L165.925 24.1953V26H159.538V24.1953L161.202 23.8438V18.3125C161.202 17.2422 161.022 16.4922 160.663 16.0625C160.304 15.6328 159.776 15.418 159.081 15.418C158.433 15.418 157.897 15.625 157.475 16.0391C157.061 16.4531 156.792 16.9805 156.667 17.6211V23.8438L158.272 24.1953V26H152.12V24.1953L153.725 23.8438V18.3125C153.725 17.2812 153.542 16.543 153.175 16.0977C152.808 15.6445 152.276 15.418 151.581 15.418C151.003 15.418 150.515 15.5352 150.116 15.7695C149.725 16.0039 149.413 16.3359 149.179 16.7656V23.8438L150.831 24.1953V26H144.468ZM171.237 26.2461C169.955 26.2461 168.955 25.9062 168.237 25.2266C167.526 24.5391 167.17 23.6055 167.17 22.4258C167.17 21.6133 167.385 20.918 167.815 20.3398C168.252 19.7539 168.885 19.3086 169.713 19.0039C170.541 18.6914 171.545 18.5352 172.725 18.5352H174.74V17.4219C174.74 16.7578 174.549 16.2383 174.166 15.8633C173.783 15.4883 173.24 15.3008 172.537 15.3008C172.123 15.3008 171.752 15.3711 171.424 15.5117C171.104 15.6523 170.85 15.8516 170.662 16.1094C170.475 16.3672 170.381 16.6602 170.381 16.9883H167.557L167.533 16.918C167.494 16.2383 167.69 15.6094 168.119 15.0312C168.549 14.4453 169.158 13.9766 169.948 13.625C170.737 13.2656 171.647 13.0859 172.678 13.0859C174.17 13.0859 175.377 13.4648 176.299 14.2227C177.229 14.9727 177.694 16.0469 177.694 17.4453V23.0469C177.694 23.2344 177.694 23.4102 177.694 23.5742C177.701 23.7305 177.717 23.8867 177.74 24.043L178.842 24.1953V26H175.174C175.096 25.7344 175.026 25.4805 174.963 25.2383C174.908 24.9883 174.865 24.7422 174.834 24.5C174.412 25.0078 173.893 25.4258 173.276 25.7539C172.658 26.082 171.979 26.2461 171.237 26.2461ZM171.916 23.9609C172.526 23.9609 173.084 23.8203 173.592 23.5391C174.1 23.2578 174.483 22.9102 174.74 22.4961V20.3164H172.69C171.869 20.3164 171.233 20.5156 170.78 20.9141C170.334 21.3125 170.112 21.7852 170.112 22.332C170.112 22.8398 170.264 23.2383 170.569 23.5273C170.881 23.8164 171.33 23.9609 171.916 23.9609ZM179.982 26V24.1953L181.74 23.8438V15.4883L179.888 15.1367V13.3203H184.459L184.611 14.9141L184.634 15.1719C184.97 14.5 185.38 13.9844 185.865 13.625C186.357 13.2656 186.931 13.0859 187.588 13.0859C187.806 13.0859 188.037 13.1055 188.279 13.1445C188.529 13.1836 188.732 13.2266 188.888 13.2734L188.548 16.0039L186.896 15.9102C186.357 15.8789 185.912 15.9844 185.56 16.2266C185.216 16.4688 184.927 16.8047 184.693 17.2344V23.8438L186.451 24.1953V26H179.982ZM195.806 26.2461C194.556 26.2461 193.497 25.9727 192.63 25.4258C191.77 24.8789 191.114 24.125 190.661 23.1641C190.216 22.2031 189.993 21.1055 189.993 19.8711V19.4609C189.993 18.2344 190.216 17.1406 190.661 16.1797C191.114 15.2188 191.77 14.4648 192.63 13.918C193.497 13.3633 194.552 13.0859 195.794 13.0859C196.817 13.0859 197.716 13.2891 198.489 13.6953C199.263 14.0938 199.86 14.6484 200.282 15.3594C200.712 16.0703 200.915 16.8867 200.892 17.8086L200.868 17.8789H198.185C198.185 17.4023 198.083 16.9766 197.88 16.6016C197.677 16.2266 197.392 15.9297 197.024 15.7109C196.665 15.4844 196.243 15.3711 195.759 15.3711C195.087 15.3711 194.54 15.5508 194.118 15.9102C193.704 16.2617 193.403 16.7461 193.216 17.3633C193.028 17.9805 192.935 18.6797 192.935 19.4609V19.8711C192.935 20.6758 193.028 21.3867 193.216 22.0039C193.403 22.6133 193.704 23.0938 194.118 23.4453C194.54 23.7969 195.099 23.9727 195.794 23.9727C196.239 23.9727 196.642 23.8789 197.001 23.6914C197.368 23.5039 197.657 23.25 197.868 22.9297C198.079 22.6016 198.185 22.2266 198.185 21.8047H200.856L200.892 21.875C200.907 22.6719 200.688 23.4023 200.235 24.0664C199.782 24.7305 199.165 25.2617 198.384 25.6602C197.61 26.0508 196.751 26.2461 195.806 26.2461ZM202.219 26V24.1953L203.977 23.8438V15.4883L202.114 15.1367V13.3203H206.93V23.8438L208.676 24.1953V26H202.219ZM203.86 10.4492V7.71875H206.93V10.4492H203.86ZM213.953 26.2461C212.672 26.2461 211.672 25.9062 210.953 25.2266C210.242 24.5391 209.886 23.6055 209.886 22.4258C209.886 21.6133 210.101 20.918 210.531 20.3398C210.968 19.7539 211.601 19.3086 212.429 19.0039C213.258 18.6914 214.261 18.5352 215.441 18.5352H217.457V17.4219C217.457 16.7578 217.265 16.2383 216.883 15.8633C216.5 15.4883 215.957 15.3008 215.254 15.3008C214.84 15.3008 214.468 15.3711 214.14 15.5117C213.82 15.6523 213.566 15.8516 213.379 16.1094C213.191 16.3672 213.097 16.6602 213.097 16.9883H210.273L210.25 16.918C210.211 16.2383 210.406 15.6094 210.836 15.0312C211.265 14.4453 211.875 13.9766 212.664 13.625C213.453 13.2656 214.363 13.0859 215.394 13.0859C216.886 13.0859 218.093 13.4648 219.015 14.2227C219.945 14.9727 220.41 16.0469 220.41 17.4453V23.0469C220.41 23.2344 220.41 23.4102 220.41 23.5742C220.418 23.7305 220.433 23.8867 220.457 24.043L221.558 24.1953V26H217.89C217.812 25.7344 217.742 25.4805 217.679 25.2383C217.625 24.9883 217.582 24.7422 217.55 24.5C217.129 25.0078 216.609 25.4258 215.992 25.7539C215.375 26.082 214.695 26.2461 213.953 26.2461ZM214.633 23.9609C215.242 23.9609 215.8 23.8203 216.308 23.5391C216.816 23.2578 217.199 22.9102 217.457 22.4961V20.3164H215.406C214.586 20.3164 213.949 20.5156 213.496 20.9141C213.05 21.3125 212.828 21.7852 212.828 22.332C212.828 22.8398 212.98 23.2383 213.285 23.5273C213.597 23.8164 214.047 23.9609 214.633 23.9609Z" fill="#003541"/>
<path d="M61.236 43.07C60.5733 43.07 59.9573 42.93 59.388 42.65C58.8187 42.3607 58.324 41.9733 57.904 41.488C57.484 41.0027 57.1573 40.4613 56.924 39.864C56.7 39.2667 56.588 38.6507 56.588 38.016C56.588 37.344 56.7 36.7093 56.924 36.112C57.1573 35.5053 57.4793 34.9687 57.89 34.502C58.3007 34.0353 58.786 33.6667 59.346 33.396C59.906 33.1253 60.5173 32.99 61.18 32.99C62.16 32.99 62.958 33.1907 63.574 33.592C64.19 33.9933 64.6567 34.516 64.974 35.16L64.218 35.664C63.9007 35.048 63.476 34.5953 62.944 34.306C62.412 34.0167 61.8193 33.872 61.166 33.872C60.6153 33.872 60.116 33.9887 59.668 34.222C59.2293 34.4553 58.8513 34.768 58.534 35.16C58.2167 35.552 57.974 35.9953 57.806 36.49C57.6473 36.9847 57.568 37.498 57.568 38.03C57.568 38.59 57.6613 39.122 57.848 39.626C58.0347 40.1207 58.3007 40.564 58.646 40.956C58.9913 41.3387 59.388 41.642 59.836 41.866C60.2933 42.0807 60.7833 42.188 61.306 42.188C61.9127 42.188 62.4867 42.0387 63.028 41.74C63.5693 41.432 64.0873 40.9607 64.582 40.326V41.362C63.6393 42.5007 62.524 43.07 61.236 43.07ZM64.428 38.87H62.216V38.114H65.254V43H64.428V38.87ZM66.7915 39.99V35.706H67.7435V39.822C67.7435 40.6527 67.8835 41.2733 68.1635 41.684C68.4528 42.0947 68.8775 42.3 69.4375 42.3C69.8108 42.3 70.1702 42.2207 70.5155 42.062C70.8702 41.894 71.1828 41.6607 71.4535 41.362C71.7242 41.054 71.9295 40.6993 72.0695 40.298V35.706H73.0215V41.852C73.0215 41.9827 73.0495 42.0807 73.1055 42.146C73.1615 42.202 73.2455 42.2347 73.3575 42.244V43C73.2455 43.0093 73.1568 43.014 73.0915 43.014C73.0262 43.0233 72.9655 43.028 72.9095 43.028C72.7228 43.0093 72.5595 42.9347 72.4195 42.804C72.2888 42.6733 72.2188 42.5147 72.2095 42.328L72.1815 41.348C71.8642 41.908 71.4302 42.3467 70.8795 42.664C70.3382 42.9813 69.7502 43.14 69.1155 43.14C68.3502 43.14 67.7715 42.874 67.3795 42.342C66.9875 41.81 66.7915 41.026 66.7915 39.99ZM74.964 43V35.706H75.916V43H74.964ZM74.964 34.18V32.78H75.916V34.18H74.964ZM83.4028 43V41.642C83.1321 42.09 82.7635 42.454 82.2968 42.734C81.8301 43.0047 81.3308 43.14 80.7988 43.14C80.2948 43.14 79.8281 43.0373 79.3988 42.832C78.9788 42.6267 78.6101 42.3467 78.2928 41.992C77.9848 41.6373 77.7421 41.236 77.5648 40.788C77.3968 40.3307 77.3128 39.8593 77.3128 39.374C77.3128 38.6833 77.4528 38.0533 77.7328 37.484C78.0221 36.9053 78.4188 36.4433 78.9228 36.098C79.4268 35.7527 79.9961 35.58 80.6308 35.58C81.2468 35.58 81.7881 35.7433 82.2548 36.07C82.7215 36.3873 83.1041 36.7747 83.4028 37.232V32.78H84.3548V43H83.4028ZM83.4028 38.24C83.2815 37.8947 83.0855 37.5867 82.8148 37.316C82.5441 37.036 82.2361 36.8167 81.8908 36.658C81.5548 36.4993 81.2188 36.42 80.8828 36.42C80.4908 36.42 80.1361 36.504 79.8188 36.672C79.5015 36.8307 79.2261 37.0547 78.9928 37.344C78.7688 37.624 78.5961 37.9413 78.4748 38.296C78.3535 38.6413 78.2928 39.0007 78.2928 39.374C78.2928 39.766 78.3581 40.1393 78.4888 40.494C78.6288 40.8487 78.8248 41.166 79.0768 41.446C79.3288 41.7167 79.6181 41.9267 79.9448 42.076C80.2715 42.2253 80.6261 42.3 81.0088 42.3C81.2515 42.3 81.5035 42.2533 81.7648 42.16C82.0355 42.0667 82.2875 41.9407 82.5208 41.782C82.7635 41.614 82.9641 41.418 83.1228 41.194C83.2815 40.97 83.3748 40.7367 83.4028 40.494V38.24ZM90.9091 43V41.852C90.5731 42.3 90.1531 42.6267 89.6491 42.832C89.1451 43.0373 88.6224 43.14 88.0811 43.14C87.6238 43.14 87.2131 43.042 86.8491 42.846C86.4851 42.6407 86.1958 42.37 85.9811 42.034C85.7664 41.6887 85.6591 41.3013 85.6591 40.872C85.6591 40.4893 85.7478 40.158 85.9251 39.878C86.1118 39.598 86.3498 39.3693 86.6391 39.192C86.9378 39.0147 87.2691 38.884 87.6331 38.8C87.9971 38.716 88.3564 38.674 88.7111 38.674C89.2151 38.674 89.6538 38.716 90.0271 38.8C90.4004 38.884 90.6804 38.968 90.8671 39.052V38.394C90.8671 37.7687 90.6851 37.2647 90.3211 36.882C89.9571 36.49 89.4531 36.294 88.8091 36.294C88.4451 36.294 88.0671 36.3687 87.6751 36.518C87.2831 36.6673 86.8818 36.882 86.4711 37.162L86.1351 36.532C86.5458 36.2613 86.9798 36.0373 87.4371 35.86C87.9038 35.6733 88.3891 35.58 88.8931 35.58C89.5278 35.58 90.0598 35.7013 90.4891 35.944C90.9278 36.1867 91.2591 36.5273 91.4831 36.966C91.7071 37.4047 91.8191 37.9087 91.8191 38.478V43H90.9091ZM90.6291 41.39C90.7878 41.194 90.8671 41.012 90.8671 40.844V39.654C90.5404 39.5233 90.2044 39.43 89.8591 39.374C89.5138 39.3087 89.1731 39.276 88.8371 39.276C88.5851 39.276 88.3238 39.304 88.0531 39.36C87.7824 39.416 87.5351 39.5047 87.3111 39.626C87.0871 39.7473 86.9051 39.906 86.7651 40.102C86.6344 40.298 86.5691 40.5313 86.5691 40.802C86.5691 41.1193 86.6484 41.3993 86.8071 41.642C86.9751 41.8847 87.1898 42.076 87.4511 42.216C87.7218 42.3467 88.0064 42.412 88.3051 42.412C88.5851 42.412 88.8744 42.3747 89.1731 42.3C89.4718 42.2253 89.7471 42.1133 89.9991 41.964C90.2604 41.8147 90.4704 41.6233 90.6291 41.39ZM102.583 43V41.642C102.313 42.09 101.944 42.454 101.477 42.734C101.011 43.0047 100.511 43.14 99.9794 43.14C99.4754 43.14 99.0087 43.0373 98.5794 42.832C98.1594 42.6267 97.7907 42.3467 97.4734 41.992C97.1654 41.6373 96.9227 41.236 96.7454 40.788C96.5774 40.3307 96.4934 39.8593 96.4934 39.374C96.4934 38.6833 96.6334 38.0533 96.9134 37.484C97.2027 36.9053 97.5994 36.4433 98.1034 36.098C98.6074 35.7527 99.1767 35.58 99.8114 35.58C100.427 35.58 100.969 35.7433 101.435 36.07C101.902 36.3873 102.285 36.7747 102.583 37.232V32.78H103.535V43H102.583ZM102.583 38.24C102.462 37.8947 102.266 37.5867 101.995 37.316C101.725 37.036 101.417 36.8167 101.071 36.658C100.735 36.4993 100.399 36.42 100.063 36.42C99.6714 36.42 99.3167 36.504 98.9994 36.672C98.682 36.8307 98.4067 37.0547 98.1734 37.344C97.9494 37.624 97.7767 37.9413 97.6554 38.296C97.534 38.6413 97.4734 39.0007 97.4734 39.374C97.4734 39.766 97.5387 40.1393 97.6694 40.494C97.8094 40.8487 98.0054 41.166 98.2574 41.446C98.5094 41.7167 98.7987 41.9267 99.1254 42.076C99.452 42.2253 99.8067 42.3 100.189 42.3C100.432 42.3 100.684 42.2533 100.945 42.16C101.216 42.0667 101.468 41.9407 101.701 41.782C101.944 41.614 102.145 41.418 102.303 41.194C102.462 40.97 102.555 40.7367 102.583 40.494V38.24ZM105.428 43V35.706H106.38V43H105.428ZM105.428 34.18V32.78H106.38V34.18H105.428ZM111.3 33.06L114.856 41.782L118.398 33.06H119.42L115.304 43H114.408L110.278 33.06H111.3ZM120.438 43V35.706H121.39V43H120.438ZM120.438 34.18V32.78H121.39V34.18H120.438ZM127.939 43V41.852C127.603 42.3 127.183 42.6267 126.679 42.832C126.175 43.0373 125.652 43.14 125.111 43.14C124.654 43.14 124.243 43.042 123.879 42.846C123.515 42.6407 123.226 42.37 123.011 42.034C122.796 41.6887 122.689 41.3013 122.689 40.872C122.689 40.4893 122.778 40.158 122.955 39.878C123.142 39.598 123.38 39.3693 123.669 39.192C123.968 39.0147 124.299 38.884 124.663 38.8C125.027 38.716 125.386 38.674 125.741 38.674C126.245 38.674 126.684 38.716 127.057 38.8C127.43 38.884 127.71 38.968 127.897 39.052V38.394C127.897 37.7687 127.715 37.2647 127.351 36.882C126.987 36.49 126.483 36.294 125.839 36.294C125.475 36.294 125.097 36.3687 124.705 36.518C124.313 36.6673 123.912 36.882 123.501 37.162L123.165 36.532C123.576 36.2613 124.01 36.0373 124.467 35.86C124.934 35.6733 125.419 35.58 125.923 35.58C126.558 35.58 127.09 35.7013 127.519 35.944C127.958 36.1867 128.289 36.5273 128.513 36.966C128.737 37.4047 128.849 37.9087 128.849 38.478V43H127.939ZM127.659 41.39C127.818 41.194 127.897 41.012 127.897 40.844V39.654C127.57 39.5233 127.234 39.43 126.889 39.374C126.544 39.3087 126.203 39.276 125.867 39.276C125.615 39.276 125.354 39.304 125.083 39.36C124.812 39.416 124.565 39.5047 124.341 39.626C124.117 39.7473 123.935 39.906 123.795 40.102C123.664 40.298 123.599 40.5313 123.599 40.802C123.599 41.1193 123.678 41.3993 123.837 41.642C124.005 41.8847 124.22 42.076 124.481 42.216C124.752 42.3467 125.036 42.412 125.335 42.412C125.615 42.412 125.904 42.3747 126.203 42.3C126.502 42.2253 126.777 42.1133 127.029 41.964C127.29 41.8147 127.5 41.6233 127.659 41.39ZM133.581 43.098C133.086 43.098 132.629 42.9953 132.209 42.79C131.789 42.5847 131.425 42.3093 131.117 41.964C130.818 41.6093 130.585 41.208 130.417 40.76C130.249 40.312 130.165 39.85 130.165 39.374C130.165 38.8607 130.244 38.38 130.403 37.932C130.571 37.4747 130.804 37.0687 131.103 36.714C131.411 36.3593 131.77 36.084 132.181 35.888C132.592 35.6827 133.049 35.58 133.553 35.58C134.178 35.58 134.72 35.7387 135.177 36.056C135.644 36.3733 136.036 36.7653 136.353 37.232V35.706H137.207V43.028C137.207 43.7 137.044 44.2647 136.717 44.722C136.4 45.1887 135.966 45.5387 135.415 45.772C134.874 46.0053 134.281 46.122 133.637 46.122C132.806 46.122 132.134 45.9727 131.621 45.674C131.108 45.3753 130.688 44.974 130.361 44.47L130.949 44.008C131.238 44.4653 131.621 44.806 132.097 45.03C132.582 45.254 133.096 45.366 133.637 45.366C134.113 45.366 134.547 45.2773 134.939 45.1C135.34 44.932 135.658 44.6753 135.891 44.33C136.134 43.9847 136.255 43.5507 136.255 43.028V41.586C135.975 42.0433 135.592 42.412 135.107 42.692C134.622 42.9627 134.113 43.098 133.581 43.098ZM133.847 42.3C134.136 42.3 134.412 42.2487 134.673 42.146C134.944 42.0433 135.191 41.908 135.415 41.74C135.639 41.5627 135.826 41.3667 135.975 41.152C136.124 40.9373 136.218 40.718 136.255 40.494V38.24C136.115 37.8853 135.914 37.5727 135.653 37.302C135.392 37.022 135.093 36.8073 134.757 36.658C134.43 36.4993 134.09 36.42 133.735 36.42C133.324 36.42 132.956 36.5087 132.629 36.686C132.312 36.854 132.041 37.0827 131.817 37.372C131.602 37.652 131.434 37.9693 131.313 38.324C131.192 38.6787 131.131 39.0333 131.131 39.388C131.131 39.78 131.201 40.1533 131.341 40.508C131.481 40.8533 131.672 41.166 131.915 41.446C132.167 41.7167 132.456 41.9267 132.783 42.076C133.119 42.2253 133.474 42.3 133.847 42.3ZM142.025 43.098C141.531 43.098 141.073 42.9953 140.653 42.79C140.233 42.5847 139.869 42.3093 139.561 41.964C139.263 41.6093 139.029 41.208 138.861 40.76C138.693 40.312 138.609 39.85 138.609 39.374C138.609 38.8607 138.689 38.38 138.847 37.932C139.015 37.4747 139.249 37.0687 139.547 36.714C139.855 36.3593 140.215 36.084 140.625 35.888C141.036 35.6827 141.493 35.58 141.997 35.58C142.623 35.58 143.164 35.7387 143.621 36.056C144.088 36.3733 144.48 36.7653 144.797 37.232V35.706H145.651V43.028C145.651 43.7 145.488 44.2647 145.161 44.722C144.844 45.1887 144.41 45.5387 143.859 45.772C143.318 46.0053 142.725 46.122 142.081 46.122C141.251 46.122 140.579 45.9727 140.065 45.674C139.552 45.3753 139.132 44.974 138.805 44.47L139.393 44.008C139.683 44.4653 140.065 44.806 140.541 45.03C141.027 45.254 141.54 45.366 142.081 45.366C142.557 45.366 142.991 45.2773 143.383 45.1C143.785 44.932 144.102 44.6753 144.335 44.33C144.578 43.9847 144.699 43.5507 144.699 43.028V41.586C144.419 42.0433 144.037 42.412 143.551 42.692C143.066 42.9627 142.557 43.098 142.025 43.098ZM142.291 42.3C142.581 42.3 142.856 42.2487 143.117 42.146C143.388 42.0433 143.635 41.908 143.859 41.74C144.083 41.5627 144.27 41.3667 144.419 41.152C144.569 40.9373 144.662 40.718 144.699 40.494V38.24C144.559 37.8853 144.359 37.5727 144.097 37.302C143.836 37.022 143.537 36.8073 143.201 36.658C142.875 36.4993 142.534 36.42 142.179 36.42C141.769 36.42 141.4 36.5087 141.073 36.686C140.756 36.854 140.485 37.0827 140.261 37.372C140.047 37.652 139.879 37.9693 139.757 38.324C139.636 38.6787 139.575 39.0333 139.575 39.388C139.575 39.78 139.645 40.1533 139.785 40.508C139.925 40.8533 140.117 41.166 140.359 41.446C140.611 41.7167 140.901 41.9267 141.227 42.076C141.563 42.2253 141.918 42.3 142.291 42.3ZM147.544 43V35.706H148.496V43H147.544ZM147.544 34.18V32.78H148.496V34.18H147.544ZM153.49 43.14C152.968 43.14 152.482 43.042 152.034 42.846C151.596 42.6407 151.213 42.3653 150.886 42.02C150.569 41.6653 150.322 41.264 150.144 40.816C149.967 40.3587 149.878 39.878 149.878 39.374C149.878 38.8513 149.967 38.366 150.144 37.918C150.322 37.4607 150.574 37.0593 150.9 36.714C151.227 36.3593 151.61 36.084 152.048 35.888C152.496 35.6827 152.982 35.58 153.504 35.58C154.027 35.58 154.508 35.6827 154.946 35.888C155.385 36.084 155.768 36.3593 156.094 36.714C156.421 37.0593 156.673 37.4607 156.85 37.918C157.028 38.366 157.116 38.8513 157.116 39.374C157.116 39.878 157.028 40.3587 156.85 40.816C156.673 41.264 156.421 41.6653 156.094 42.02C155.777 42.3653 155.394 42.6407 154.946 42.846C154.508 43.042 154.022 43.14 153.49 43.14ZM150.844 39.388C150.844 39.9293 150.961 40.424 151.194 40.872C151.437 41.3107 151.759 41.6607 152.16 41.922C152.562 42.174 153.005 42.3 153.49 42.3C153.976 42.3 154.419 42.1693 154.82 41.908C155.222 41.6467 155.544 41.292 155.786 40.844C156.029 40.3867 156.15 39.892 156.15 39.36C156.15 38.8187 156.029 38.324 155.786 37.876C155.544 37.428 155.222 37.0733 154.82 36.812C154.419 36.5507 153.976 36.42 153.49 36.42C153.005 36.42 152.562 36.5553 152.16 36.826C151.768 37.0967 151.451 37.456 151.208 37.904C150.966 38.3427 150.844 38.8373 150.844 39.388ZM161.857 43V35.706H162.809V43H161.857ZM161.857 34.18V32.78H162.809V34.18H161.857ZM170.828 43H169.876V38.926C169.876 38.0673 169.75 37.442 169.498 37.05C169.246 36.6487 168.849 36.448 168.308 36.448C167.934 36.448 167.566 36.5413 167.202 36.728C166.838 36.9053 166.516 37.1527 166.236 37.47C165.965 37.778 165.769 38.1327 165.648 38.534V43H164.696V35.706H165.564V37.358C165.76 37.0033 166.016 36.6953 166.334 36.434C166.651 36.1633 167.01 35.9533 167.412 35.804C167.813 35.6547 168.228 35.58 168.658 35.58C169.059 35.58 169.4 35.6547 169.68 35.804C169.96 35.9533 170.184 36.168 170.352 36.448C170.52 36.7187 170.641 37.05 170.716 37.442C170.79 37.8247 170.828 38.254 170.828 38.73V43ZM175.544 37.96C175.544 37.3533 175.647 36.7607 175.852 36.182C176.067 35.594 176.375 35.062 176.776 34.586C177.178 34.1007 177.672 33.718 178.26 33.438C178.848 33.1487 179.516 33.004 180.262 33.004C181.149 33.004 181.905 33.2093 182.53 33.62C183.165 34.0213 183.632 34.5393 183.93 35.174L183.16 35.65C182.946 35.2113 182.675 34.866 182.348 34.614C182.022 34.3527 181.672 34.166 181.298 34.054C180.934 33.942 180.57 33.886 180.206 33.886C179.609 33.886 179.082 34.0073 178.624 34.25C178.167 34.4833 177.78 34.8007 177.462 35.202C177.154 35.594 176.921 36.0373 176.762 36.532C176.604 37.0173 176.524 37.512 176.524 38.016C176.524 38.5667 176.618 39.094 176.804 39.598C176.991 40.102 177.252 40.55 177.588 40.942C177.924 41.3247 178.316 41.6327 178.764 41.866C179.222 42.09 179.716 42.202 180.248 42.202C180.622 42.202 181.004 42.1367 181.396 42.006C181.788 41.8753 182.152 41.6747 182.488 41.404C182.834 41.1333 183.109 40.7833 183.314 40.354L184.126 40.774C183.921 41.2687 183.604 41.6887 183.174 42.034C182.745 42.3793 182.264 42.6407 181.732 42.818C181.21 42.9953 180.696 43.084 180.192 43.084C179.511 43.084 178.886 42.9393 178.316 42.65C177.747 42.3513 177.252 41.9593 176.832 41.474C176.422 40.9793 176.104 40.4287 175.88 39.822C175.656 39.206 175.544 38.5853 175.544 37.96ZM188.502 43.14C187.979 43.14 187.494 43.042 187.046 42.846C186.607 42.6407 186.225 42.3653 185.898 42.02C185.581 41.6653 185.333 41.264 185.156 40.816C184.979 40.3587 184.89 39.878 184.89 39.374C184.89 38.8513 184.979 38.366 185.156 37.918C185.333 37.4607 185.585 37.0593 185.912 36.714C186.239 36.3593 186.621 36.084 187.06 35.888C187.508 35.6827 187.993 35.58 188.516 35.58C189.039 35.58 189.519 35.6827 189.958 35.888C190.397 36.084 190.779 36.3593 191.106 36.714C191.433 37.0593 191.685 37.4607 191.862 37.918C192.039 38.366 192.128 38.8513 192.128 39.374C192.128 39.878 192.039 40.3587 191.862 40.816C191.685 41.264 191.433 41.6653 191.106 42.02C190.789 42.3653 190.406 42.6407 189.958 42.846C189.519 43.042 189.034 43.14 188.502 43.14ZM185.856 39.388C185.856 39.9293 185.973 40.424 186.206 40.872C186.449 41.3107 186.771 41.6607 187.172 41.922C187.573 42.174 188.017 42.3 188.502 42.3C188.987 42.3 189.431 42.1693 189.832 41.908C190.233 41.6467 190.555 41.292 190.798 40.844C191.041 40.3867 191.162 39.892 191.162 39.36C191.162 38.8187 191.041 38.324 190.798 37.876C190.555 37.428 190.233 37.0733 189.832 36.812C189.431 36.5507 188.987 36.42 188.502 36.42C188.017 36.42 187.573 36.5553 187.172 36.826C186.78 37.0967 186.463 37.456 186.22 37.904C185.977 38.3427 185.856 38.8373 185.856 39.388ZM197.15 36.546C196.515 36.5647 195.955 36.742 195.47 37.078C194.994 37.414 194.658 37.876 194.462 38.464V43H193.51V35.706H194.406V37.456C194.658 36.9427 194.989 36.5273 195.4 36.21C195.82 35.8927 196.263 35.7153 196.73 35.678C196.823 35.6687 196.903 35.664 196.968 35.664C197.043 35.664 197.103 35.6687 197.15 35.678V36.546ZM201.126 43.14C200.603 43.14 200.118 43.042 199.67 42.846C199.222 42.6407 198.835 42.3653 198.508 42.02C198.181 41.6653 197.925 41.2593 197.738 40.802C197.561 40.3447 197.472 39.8547 197.472 39.332C197.472 38.6507 197.626 38.0253 197.934 37.456C198.251 36.8867 198.685 36.434 199.236 36.098C199.787 35.7527 200.412 35.58 201.112 35.58C201.831 35.58 202.456 35.7527 202.988 36.098C203.529 36.4433 203.954 36.9007 204.262 37.47C204.57 38.03 204.724 38.646 204.724 39.318C204.724 39.3927 204.724 39.4673 204.724 39.542C204.724 39.6073 204.719 39.6587 204.71 39.696H198.466C198.513 40.2187 198.657 40.6853 198.9 41.096C199.152 41.4973 199.474 41.8193 199.866 42.062C200.267 42.2953 200.701 42.412 201.168 42.412C201.644 42.412 202.092 42.2907 202.512 42.048C202.941 41.8053 203.24 41.488 203.408 41.096L204.234 41.32C204.085 41.6653 203.856 41.978 203.548 42.258C203.24 42.538 202.876 42.7573 202.456 42.916C202.045 43.0653 201.602 43.14 201.126 43.14ZM198.438 39.01H203.828C203.791 38.478 203.646 38.0113 203.394 37.61C203.151 37.2087 202.829 36.896 202.428 36.672C202.036 36.4387 201.602 36.322 201.126 36.322C200.65 36.322 200.216 36.4387 199.824 36.672C199.432 36.896 199.11 37.2133 198.858 37.624C198.615 38.0253 198.475 38.4873 198.438 39.01ZM210.645 43V41.852C210.309 42.3 209.889 42.6267 209.385 42.832C208.881 43.0373 208.358 43.14 207.817 43.14C207.359 43.14 206.949 43.042 206.585 42.846C206.221 42.6407 205.931 42.37 205.717 42.034C205.502 41.6887 205.395 41.3013 205.395 40.872C205.395 40.4893 205.483 40.158 205.661 39.878C205.847 39.598 206.085 39.3693 206.375 39.192C206.673 39.0147 207.005 38.884 207.369 38.8C207.733 38.716 208.092 38.674 208.447 38.674C208.951 38.674 209.389 38.716 209.763 38.8C210.136 38.884 210.416 38.968 210.603 39.052V38.394C210.603 37.7687 210.421 37.2647 210.057 36.882C209.693 36.49 209.189 36.294 208.545 36.294C208.181 36.294 207.803 36.3687 207.411 36.518C207.019 36.6673 206.617 36.882 206.207 37.162L205.871 36.532C206.281 36.2613 206.715 36.0373 207.173 35.86C207.639 35.6733 208.125 35.58 208.629 35.58C209.263 35.58 209.795 35.7013 210.225 35.944C210.663 36.1867 210.995 36.5273 211.219 36.966C211.443 37.4047 211.555 37.9087 211.555 38.478V43H210.645ZM210.365 41.39C210.523 41.194 210.603 41.012 210.603 40.844V39.654C210.276 39.5233 209.94 39.43 209.595 39.374C209.249 39.3087 208.909 39.276 208.573 39.276C208.321 39.276 208.059 39.304 207.789 39.36C207.518 39.416 207.271 39.5047 207.047 39.626C206.823 39.7473 206.641 39.906 206.501 40.102C206.37 40.298 206.305 40.5313 206.305 40.802C206.305 41.1193 206.384 41.3993 206.543 41.642C206.711 41.8847 206.925 42.076 207.187 42.216C207.457 42.3467 207.742 42.412 208.041 42.412C208.321 42.412 208.61 42.3747 208.909 42.3C209.207 42.2253 209.483 42.1133 209.735 41.964C209.996 41.8147 210.206 41.6233 210.365 41.39ZM222.319 43V41.642C222.048 42.09 221.68 42.454 221.213 42.734C220.746 43.0047 220.247 43.14 219.715 43.14C219.211 43.14 218.744 43.0373 218.315 42.832C217.895 42.6267 217.526 42.3467 217.209 41.992C216.901 41.6373 216.658 41.236 216.481 40.788C216.313 40.3307 216.229 39.8593 216.229 39.374C216.229 38.6833 216.369 38.0533 216.649 37.484C216.938 36.9053 217.335 36.4433 217.839 36.098C218.343 35.7527 218.912 35.58 219.547 35.58C220.163 35.58 220.704 35.7433 221.171 36.07C221.638 36.3873 222.02 36.7747 222.319 37.232V32.78H223.271V43H222.319ZM222.319 38.24C222.198 37.8947 222.002 37.5867 221.731 37.316C221.46 37.036 221.152 36.8167 220.807 36.658C220.471 36.4993 220.135 36.42 219.799 36.42C219.407 36.42 219.052 36.504 218.735 36.672C218.418 36.8307 218.142 37.0547 217.909 37.344C217.685 37.624 217.512 37.9413 217.391 38.296C217.27 38.6413 217.209 39.0007 217.209 39.374C217.209 39.766 217.274 40.1393 217.405 40.494C217.545 40.8487 217.741 41.166 217.993 41.446C218.245 41.7167 218.534 41.9267 218.861 42.076C219.188 42.2253 219.542 42.3 219.925 42.3C220.168 42.3 220.42 42.2533 220.681 42.16C220.952 42.0667 221.204 41.9407 221.437 41.782C221.68 41.614 221.88 41.418 222.039 41.194C222.198 40.97 222.291 40.7367 222.319 40.494V38.24ZM228.313 43.14C227.791 43.14 227.305 43.042 226.857 42.846C226.409 42.6407 226.022 42.3653 225.695 42.02C225.369 41.6653 225.112 41.2593 224.925 40.802C224.748 40.3447 224.659 39.8547 224.659 39.332C224.659 38.6507 224.813 38.0253 225.121 37.456C225.439 36.8867 225.873 36.434 226.423 36.098C226.974 35.7527 227.599 35.58 228.299 35.58C229.018 35.58 229.643 35.7527 230.175 36.098C230.717 36.4433 231.141 36.9007 231.449 37.47C231.757 38.03 231.911 38.646 231.911 39.318C231.911 39.3927 231.911 39.4673 231.911 39.542C231.911 39.6073 231.907 39.6587 231.897 39.696H225.653C225.7 40.2187 225.845 40.6853 226.087 41.096C226.339 41.4973 226.661 41.8193 227.053 42.062C227.455 42.2953 227.889 42.412 228.355 42.412C228.831 42.412 229.279 42.2907 229.699 42.048C230.129 41.8053 230.427 41.488 230.595 41.096L231.421 41.32C231.272 41.6653 231.043 41.978 230.735 42.258C230.427 42.538 230.063 42.7573 229.643 42.916C229.233 43.0653 228.789 43.14 228.313 43.14ZM225.625 39.01H231.015C230.978 38.478 230.833 38.0113 230.581 37.61C230.339 37.2087 230.017 36.896 229.615 36.672C229.223 36.4387 228.789 36.322 228.313 36.322C227.837 36.322 227.403 36.4387 227.011 36.672C226.619 36.896 226.297 37.2133 226.045 37.624C225.803 38.0253 225.663 38.4873 225.625 39.01ZM233.254 32.78H234.206V43C234.206 43 234.173 43 234.108 43C234.043 43 233.959 43 233.856 43C233.753 43 233.646 43 233.534 43C233.431 43 233.338 43 233.254 43V32.78ZM245.524 34.922C245.384 34.7633 245.22 34.6233 245.034 34.502C244.847 34.3713 244.637 34.2593 244.404 34.166C244.17 34.0727 243.918 33.998 243.648 33.942C243.386 33.886 243.106 33.858 242.808 33.858C241.94 33.858 241.3 34.026 240.89 34.362C240.488 34.6887 240.288 35.1367 240.288 35.706C240.288 36.098 240.381 36.406 240.568 36.63C240.764 36.854 241.067 37.036 241.478 37.176C241.888 37.316 242.411 37.4607 243.046 37.61C243.755 37.7593 244.366 37.9367 244.88 38.142C245.393 38.3473 245.79 38.6273 246.07 38.982C246.35 39.3273 246.49 39.7987 246.49 40.396C246.49 40.8533 246.401 41.25 246.224 41.586C246.046 41.922 245.799 42.202 245.482 42.426C245.164 42.65 244.786 42.818 244.348 42.93C243.909 43.0327 243.428 43.084 242.906 43.084C242.392 43.084 241.898 43.0327 241.422 42.93C240.955 42.818 240.512 42.6593 240.092 42.454C239.672 42.2393 239.28 41.9687 238.916 41.642L239.406 40.844C239.583 41.0307 239.793 41.208 240.036 41.376C240.288 41.5347 240.563 41.6793 240.862 41.81C241.17 41.9407 241.496 42.0433 241.842 42.118C242.196 42.1833 242.56 42.216 242.934 42.216C243.727 42.216 244.343 42.0713 244.782 41.782C245.23 41.4927 245.454 41.0633 245.454 40.494C245.454 40.0833 245.342 39.7567 245.118 39.514C244.894 39.262 244.558 39.0567 244.11 38.898C243.662 38.7393 243.111 38.5853 242.458 38.436C241.767 38.2773 241.184 38.1 240.708 37.904C240.232 37.708 239.872 37.4513 239.63 37.134C239.396 36.8073 239.28 36.378 239.28 35.846C239.28 35.23 239.429 34.712 239.728 34.292C240.036 33.8627 240.456 33.5407 240.988 33.326C241.52 33.102 242.131 32.99 242.822 32.99C243.26 32.99 243.666 33.0367 244.04 33.13C244.422 33.214 244.772 33.34 245.09 33.508C245.416 33.676 245.72 33.886 246 34.138L245.524 34.922ZM247.741 39.99V35.706H248.693V39.822C248.693 40.6527 248.833 41.2733 249.113 41.684C249.403 42.0947 249.827 42.3 250.387 42.3C250.761 42.3 251.12 42.2207 251.465 42.062C251.82 41.894 252.133 41.6607 252.403 41.362C252.674 41.054 252.879 40.6993 253.019 40.298V35.706H253.971V41.852C253.971 41.9827 253.999 42.0807 254.055 42.146C254.111 42.202 254.195 42.2347 254.307 42.244V43C254.195 43.0093 254.107 43.014 254.041 43.014C253.976 43.0233 253.915 43.028 253.859 43.028C253.673 43.0093 253.509 42.9347 253.369 42.804C253.239 42.6733 253.169 42.5147 253.159 42.328L253.131 41.348C252.814 41.908 252.38 42.3467 251.829 42.664C251.288 42.9813 250.7 43.14 250.065 43.14C249.3 43.14 248.721 42.874 248.329 42.342C247.937 41.81 247.741 41.026 247.741 39.99ZM261.514 43V41.642C261.243 42.09 260.875 42.454 260.408 42.734C259.941 43.0047 259.442 43.14 258.91 43.14C258.406 43.14 257.939 43.0373 257.51 42.832C257.09 42.6267 256.721 42.3467 256.404 41.992C256.096 41.6373 255.853 41.236 255.676 40.788C255.508 40.3307 255.424 39.8593 255.424 39.374C255.424 38.6833 255.564 38.0533 255.844 37.484C256.133 36.9053 256.53 36.4433 257.034 36.098C257.538 35.7527 258.107 35.58 258.742 35.58C259.358 35.58 259.899 35.7433 260.366 36.07C260.833 36.3873 261.215 36.7747 261.514 37.232V32.78H262.466V43H261.514ZM261.514 38.24C261.393 37.8947 261.197 37.5867 260.926 37.316C260.655 37.036 260.347 36.8167 260.002 36.658C259.666 36.4993 259.33 36.42 258.994 36.42C258.602 36.42 258.247 36.504 257.93 36.672C257.613 36.8307 257.337 37.0547 257.104 37.344C256.88 37.624 256.707 37.9413 256.586 38.296C256.465 38.6413 256.404 39.0007 256.404 39.374C256.404 39.766 256.469 40.1393 256.6 40.494C256.74 40.8487 256.936 41.166 257.188 41.446C257.44 41.7167 257.729 41.9267 258.056 42.076C258.383 42.2253 258.737 42.3 259.12 42.3C259.363 42.3 259.615 42.2533 259.876 42.16C260.147 42.0667 260.399 41.9407 260.632 41.782C260.875 41.614 261.075 41.418 261.234 41.194C261.393 40.97 261.486 40.7367 261.514 40.494V38.24Z" fill="#003541"/>
<path fill-rule="evenodd" clip-rule="evenodd" d="M48 0H0V48H48V0ZM21.2864 21.0248L23.3606 24.3998L25.0364 23.181L22.7278 20.0521L26.2903 19.0092L25.6809 17.017L22.2591 18.3764L22.4466 14.2631H20.3723L20.5481 18.306L17.0677 16.9232L16.4348 18.8803L19.9505 19.9232L17.5598 23.1225L19.2473 24.306L21.2864 21.0248ZM31.8717 21.0248L33.9459 24.3998L35.6217 23.181L33.3131 20.0521L36.8756 19.0092L36.2663 17.017L32.8444 18.3764L33.0319 14.2631H30.9577L31.1334 18.306L27.653 16.9232L27.0202 18.8803L30.5358 19.9232L28.1452 23.1225L29.8327 24.306L31.8717 21.0248ZM42.457 21.0248L44.5313 24.3998L46.207 23.181L43.8984 20.0521L47.4609 19.0092L46.8516 17.017L43.4297 18.3764L43.6172 14.2631H41.543L41.7188 18.306L38.2383 16.9232L37.6055 18.8803L41.1211 19.9232L38.7305 23.1225L40.418 24.306L42.457 21.0248Z" fill="#003541"/>
</svg>
